<?xml version="1.0" ?>
<svg version="1.1" xml:space="preserve" xmlns="http://www.w3.org/2000/svg" xmlns:xlink="http://www.w3.org/1999/xlink">
  <g>
    <path d="M26.87,12.49l-10,18C16.69,30.81,16.36,31,16,31c-0.08,0-0.17-0.01-0.25-0.03C15.31,30.85,15,30.46,15,30    V19H6c-0.34,0-0.65-0.17-0.84-0.45c-0.18-0.28-0.21-0.64-0.08-0.95l7-16C12.24,1.24,12.6,1,13,1h6c0.33,0,0.64,0.16,0.83,0.44    c0.18,0.27,0.22,0.62,0.1,0.93L16.48,11H26c0.35,0,0.68,0.19,0.86,0.49C27.04,11.8,27.05,12.18,26.87,12.49z" />
  </g>
</svg>